<svg width="214" height="221" viewBox="0 0 214 221" fill="none" xmlns="http://www.w3.org/2000/svg">
<path d="M166.689 0C199.923 0 213.963 33.9736 213.963 67.2109C213.963 100.448 185.785 221.001 152.548 221.001C138.493 221 135.265 143.883 106.981 143.883C78.698 143.883 75.4692 221.001 61.415 221.001C28.1819 221.001 0 100.444 0 67.2109C2.63509e-05 33.9779 14.044 0.000126052 47.2812 0C67.987 0 75.8596 15.4982 90.625 22.8496C97.2342 31.6908 101.911 38.5859 105.126 43.999C108.733 50.0739 110.19 53.7729 110.679 55.9023C110.774 56.3184 110.821 56.6283 110.845 56.8486C110.574 57.0712 110.086 57.4479 109.242 58.0215C105.848 60.3286 97.1508 65.2059 95.2373 77.1973C93.5679 87.6598 97.3069 101.734 107.513 122.424L125.45 113.575C115.411 93.2231 114.383 84.1339 114.987 80.3486C115.347 78.0927 115.964 77.6368 120.486 74.5625C122.425 73.2449 126.051 70.7819 128.42 66.6611C131.088 62.0206 131.408 56.8151 130.172 51.4277C129.003 46.336 126.343 40.5598 122.321 33.7871C120.783 31.1971 118.999 28.3841 116.946 25.3223C136.225 19.9629 143.193 9.16242e-05 166.689 0Z" fill="white"/>
</svg>
