<svg width="517" height="650" viewBox="0 0 517 650" fill="none" xmlns="http://www.w3.org/2000/svg">
<path d="M25.0001 58.3333V146.333C24.9848 154.122 27.6974 161.67 32.6667 167.667L184 349C188.969 354.997 191.682 362.545 191.667 370.333V625L325 558.333V370.333C324.985 362.545 327.697 354.997 332.667 349L484 167.667C488.969 161.67 491.682 154.122 491.667 146.333V58.3333C491.667 49.4928 488.155 41.0143 481.904 34.7631C475.652 28.5119 467.174 25 458.333 25H258.333H58.3334C49.4928 25 41.0144 28.5119 34.7632 34.7631C28.512 41.0143 25.0001 49.4928 25.0001 58.3333Z" stroke="black" stroke-width="50" stroke-linecap="round" stroke-linejoin="round"/>
</svg>
