<svg width="2036" height="600" viewBox="0 0 2036 600" fill="none" xmlns="http://www.w3.org/2000/svg">
<path d="M266.667 0C414.407 0.000187025 533.333 123.431 533.333 274.63C533.333 349.693 504.057 430.107 457.217 491.9C410.487 553.554 343.52 600 266.667 600C189.813 600 122.847 553.554 76.1152 491.9C29.2759 430.107 0 349.693 0 274.63C6.40267e-05 123.431 118.926 0 266.667 0ZM325.874 166C298.735 166 293.647 192.635 266.17 192.635C238.697 192.635 233.609 166 206.467 166C173.229 166 159.186 199.978 159.186 233.211C159.186 266.444 187.367 387 220.6 387.001C233.34 387.001 237.184 323.627 258.861 311.778C261.414 312.126 264.02 312.307 266.667 312.307C269.033 312.307 271.365 312.162 273.656 311.884C295.169 323.992 299.029 387.001 311.733 387.001C344.97 387 373.147 266.448 373.147 233.211C373.147 199.974 359.107 166 325.874 166Z" fill="black"/>
<path d="M709.965 219.5H820.465V272H742.465L789.965 342.5C811.298 372.833 823.132 393.667 825.465 405C826.798 410.333 827.465 415.833 827.465 421.5C827.465 445.167 818.632 463 800.965 475H673.465V422.5H764.965L711.465 344C709.132 340.333 705.465 335.167 700.465 328.5C695.798 321.833 692.132 316.5 689.465 312.5C686.798 308.167 684.965 305 683.965 303C682.965 301 681.632 298.5 679.965 295.5C678.298 292.167 677.132 289.333 676.465 287C675.132 280.667 674.465 275.5 674.465 271.5C674.465 247.167 686.298 229.833 709.965 219.5ZM874.77 363.5V272H840.27V219.5H874.77V150H941.27V219.5H982.27V272H941.27V379.5C941.27 399.833 944.77 414.167 951.77 422.5H982.27V475H911.27C893.603 458.667 882.936 441 879.27 422C876.27 406 874.77 386.5 874.77 363.5ZM1162.65 475H1053.65C1020.32 444 1003.65 401.667 1003.65 348C1003.65 321 1007.32 297.5 1014.65 277.5C1022.32 257.5 1034.32 238.167 1050.65 219.5H1167.65C1184.98 239.5 1196.82 259 1203.15 278C1209.48 296.667 1212.65 320 1212.65 348C1212.65 401.667 1195.98 444 1162.65 475ZM1089.15 422.5H1127.15C1139.15 399.167 1145.15 372.667 1145.15 343C1145.15 313.333 1138.98 289.667 1126.65 272H1089.15C1077.15 289 1071.15 313.167 1071.15 344.5C1071.15 375.5 1077.15 401.5 1089.15 422.5ZM1359.44 219.5H1394.94L1407.44 237C1414.44 230.667 1421.11 226.167 1427.44 223.5C1434.11 220.833 1443.94 219.5 1456.94 219.5H1512.44C1527.11 238.167 1537.11 256.833 1542.44 275.5C1547.77 294.167 1550.44 317.5 1550.44 345.5V475H1483.94V340.5C1483.94 309.833 1479.27 287 1469.94 272H1421.94C1429.27 286.333 1432.94 305.833 1432.94 330.5V475H1366.44V340.5C1366.44 308.833 1362.11 286 1353.44 272H1314.94V475H1248.44V219.5H1300.44L1309.44 237.5C1316.77 230.833 1323.61 226.167 1329.94 223.5C1336.61 220.833 1346.44 219.5 1359.44 219.5ZM1711.71 359.5H1658.21C1651.21 368.167 1647.71 379 1647.71 392C1647.71 405 1651.38 415.167 1658.71 422.5H1711.71V359.5ZM1604.21 219.5H1728.21C1748.21 231.5 1761.38 245.333 1767.71 261C1774.05 276.333 1777.21 297.333 1777.21 324V399C1777.21 426.667 1777.88 452 1779.21 475H1722.21L1713.21 457C1700.21 469 1681.88 475 1658.21 475H1626.71C1598.38 456.333 1584.21 429.5 1584.21 394.5C1584.21 359.167 1598.71 331.333 1627.71 311H1674.71C1687.71 311 1699.88 315 1711.21 323V298C1711.21 285 1705.55 276.333 1694.21 272H1604.21V219.5ZM1820.22 219.5H1873.72L1881.22 237.5C1888.55 230.833 1895.39 226.167 1901.72 223.5C1908.39 220.833 1918.22 219.5 1931.22 219.5H1976.22C1990.22 233.167 2001.22 250.833 2009.22 272.5C2017.22 294.167 2021.22 318 2021.22 344C2021.22 399.667 2004.55 443.333 1971.22 475H1928.72C1911.05 475 1897.05 470.333 1886.72 461V550H1820.22V219.5ZM1886.72 422.5H1934.72C1947.05 401.5 1953.22 376 1953.22 346C1953.22 316 1946.89 291.333 1934.22 272H1886.72V422.5Z" fill="black"/>
</svg>
